<svg width="64" height="64" viewBox="0 0 512 512" fill="none" xmlns="http://www.w3.org/2000/svg">
  <rect width="512" height="512" rx="108" fill="#fffaf0"/>
  <circle cx="256" cy="228" r="170" fill="#134A00"/>
  <circle cx="256" cy="228" r="134" fill="#fffaf0"/>
  <path d="M140 250C178 205 222 190 266 203C310 215 342 235 381 210C362 157 317 113 260 104C203 95 158 119 129 164C112 190 113 222 140 250Z" fill="#417A00"/>
  <path d="M145 292C189 274 232 276 277 296C320 315 357 307 402 280L411 322C362 352 312 354 259 329C219 312 179 313 136 334L145 292Z" fill="#134A00"/>
  <path d="M137 352C181 319 226 309 267 323C292 331 316 347 342 352C365 356 388 348 412 326L398 370C366 390 333 393 299 382C266 371 240 353 207 353C183 353 162 364 137 383V352Z" fill="#B56500"/>
  <path d="M260 126C286 150 310 173 334 196" stroke="#82a64d" stroke-width="9" stroke-linecap="round"/>
  <path d="M279 121C284 151 286 180 284 204" stroke="#82a64d" stroke-width="9" stroke-linecap="round"/>
  <path d="M238 214L260 188L279 239L256 232L238 254V214Z" fill="#134A00"/>
</svg>
